<?xml version="1.0" encoding="utf-8"?>
<svg xmlns="http://www.w3.org/2000/svg" xmlns:xlink="http://www.w3.org/1999/xlink" width="600" height="400" viewBox="0 0 2400 1600">
<defs>
  <clipPath id="clip7900">
    <rect x="0" y="0" width="2000" height="2000"/>
  </clipPath>
</defs>
<defs>
  <clipPath id="clip7901">
    <rect x="0" y="0" width="2400" height="1600"/>
  </clipPath>
</defs>
<polygon clip-path="url(#clip7901)" points="
0,1600 2400,1600 2400,0 0,0 
  " fill="#ffffff" fill-rule="evenodd" fill-opacity="1"/>
<defs>
  <clipPath id="clip7902">
    <rect x="480" y="0" width="1681" height="1600"/>
  </clipPath>
</defs>
<polygon clip-path="url(#clip7901)" points="
251.149,1440.48 2321.26,1440.48 2321.26,47.2441 251.149,47.2441 
  " fill="#ffffff" fill-rule="evenodd" fill-opacity="1"/>
<defs>
  <clipPath id="clip7903">
    <rect x="251" y="47" width="2071" height="1394"/>
  </clipPath>
</defs>
<polyline clip-path="url(#clip7903)" style="stroke:#000000; stroke-width:2; stroke-opacity:0.1; fill:none" points="
  546.456,1440.48 546.456,47.2441 
  "/>
<polyline clip-path="url(#clip7903)" style="stroke:#000000; stroke-width:2; stroke-opacity:0.1; fill:none" points="
  842.355,1440.48 842.355,47.2441 
  "/>
<polyline clip-path="url(#clip7903)" style="stroke:#000000; stroke-width:2; stroke-opacity:0.1; fill:none" points="
  1138.25,1440.48 1138.25,47.2441 
  "/>
<polyline clip-path="url(#clip7903)" style="stroke:#000000; stroke-width:2; stroke-opacity:0.1; fill:none" points="
  1434.15,1440.48 1434.15,47.2441 
  "/>
<polyline clip-path="url(#clip7903)" style="stroke:#000000; stroke-width:2; stroke-opacity:0.1; fill:none" points="
  1730.05,1440.48 1730.05,47.2441 
  "/>
<polyline clip-path="url(#clip7903)" style="stroke:#000000; stroke-width:2; stroke-opacity:0.1; fill:none" points="
  2025.95,1440.48 2025.95,47.2441 
  "/>
<polyline clip-path="url(#clip7903)" style="stroke:#000000; stroke-width:2; stroke-opacity:0.1; fill:none" points="
  251.149,1401.13 2321.26,1401.13 
  "/>
<polyline clip-path="url(#clip7903)" style="stroke:#000000; stroke-width:2; stroke-opacity:0.1; fill:none" points="
  251.149,1072.52 2321.26,1072.52 
  "/>
<polyline clip-path="url(#clip7903)" style="stroke:#000000; stroke-width:2; stroke-opacity:0.1; fill:none" points="
  251.149,743.903 2321.26,743.903 
  "/>
<polyline clip-path="url(#clip7903)" style="stroke:#000000; stroke-width:2; stroke-opacity:0.1; fill:none" points="
  251.149,415.289 2321.26,415.289 
  "/>
<polyline clip-path="url(#clip7903)" style="stroke:#000000; stroke-width:2; stroke-opacity:0.1; fill:none" points="
  251.149,86.6754 2321.26,86.6754 
  "/>
<polyline clip-path="url(#clip7901)" style="stroke:#000000; stroke-width:4; stroke-opacity:1; fill:none" points="
  251.149,1440.48 2321.26,1440.48 
  "/>
<polyline clip-path="url(#clip7901)" style="stroke:#000000; stroke-width:4; stroke-opacity:1; fill:none" points="
  251.149,1440.48 251.149,47.2441 
  "/>
<polyline clip-path="url(#clip7901)" style="stroke:#000000; stroke-width:4; stroke-opacity:1; fill:none" points="
  546.456,1440.48 546.456,1419.58 
  "/>
<polyline clip-path="url(#clip7901)" style="stroke:#000000; stroke-width:4; stroke-opacity:1; fill:none" points="
  842.355,1440.48 842.355,1419.58 
  "/>
<polyline clip-path="url(#clip7901)" style="stroke:#000000; stroke-width:4; stroke-opacity:1; fill:none" points="
  1138.25,1440.48 1138.25,1419.58 
  "/>
<polyline clip-path="url(#clip7901)" style="stroke:#000000; stroke-width:4; stroke-opacity:1; fill:none" points="
  1434.15,1440.48 1434.15,1419.58 
  "/>
<polyline clip-path="url(#clip7901)" style="stroke:#000000; stroke-width:4; stroke-opacity:1; fill:none" points="
  1730.05,1440.48 1730.05,1419.58 
  "/>
<polyline clip-path="url(#clip7901)" style="stroke:#000000; stroke-width:4; stroke-opacity:1; fill:none" points="
  2025.95,1440.48 2025.95,1419.58 
  "/>
<polyline clip-path="url(#clip7901)" style="stroke:#000000; stroke-width:4; stroke-opacity:1; fill:none" points="
  251.149,1401.13 282.2,1401.13 
  "/>
<polyline clip-path="url(#clip7901)" style="stroke:#000000; stroke-width:4; stroke-opacity:1; fill:none" points="
  251.149,1072.52 282.2,1072.52 
  "/>
<polyline clip-path="url(#clip7901)" style="stroke:#000000; stroke-width:4; stroke-opacity:1; fill:none" points="
  251.149,743.903 282.2,743.903 
  "/>
<polyline clip-path="url(#clip7901)" style="stroke:#000000; stroke-width:4; stroke-opacity:1; fill:none" points="
  251.149,415.289 282.2,415.289 
  "/>
<polyline clip-path="url(#clip7901)" style="stroke:#000000; stroke-width:4; stroke-opacity:1; fill:none" points="
  251.149,86.6754 282.2,86.6754 
  "/>
<g clip-path="url(#clip7901)">
<text style="fill:#000000; fill-opacity:1; font-family:Arial,Helvetica Neue,Helvetica,sans-serif; font-size:48px; text-anchor:middle;" transform="rotate(0, 546.456, 1494.48)" x="546.456" y="1494.48">5</text>
</g>
<g clip-path="url(#clip7901)">
<text style="fill:#000000; fill-opacity:1; font-family:Arial,Helvetica Neue,Helvetica,sans-serif; font-size:48px; text-anchor:middle;" transform="rotate(0, 842.355, 1494.48)" x="842.355" y="1494.48">10</text>
</g>
<g clip-path="url(#clip7901)">
<text style="fill:#000000; fill-opacity:1; font-family:Arial,Helvetica Neue,Helvetica,sans-serif; font-size:48px; text-anchor:middle;" transform="rotate(0, 1138.25, 1494.48)" x="1138.25" y="1494.48">15</text>
</g>
<g clip-path="url(#clip7901)">
<text style="fill:#000000; fill-opacity:1; font-family:Arial,Helvetica Neue,Helvetica,sans-serif; font-size:48px; text-anchor:middle;" transform="rotate(0, 1434.15, 1494.48)" x="1434.15" y="1494.48">20</text>
</g>
<g clip-path="url(#clip7901)">
<text style="fill:#000000; fill-opacity:1; font-family:Arial,Helvetica Neue,Helvetica,sans-serif; font-size:48px; text-anchor:middle;" transform="rotate(0, 1730.05, 1494.48)" x="1730.05" y="1494.48">25</text>
</g>
<g clip-path="url(#clip7901)">
<text style="fill:#000000; fill-opacity:1; font-family:Arial,Helvetica Neue,Helvetica,sans-serif; font-size:48px; text-anchor:middle;" transform="rotate(0, 2025.95, 1494.48)" x="2025.95" y="1494.48">30</text>
</g>
<g clip-path="url(#clip7901)">
<text style="fill:#000000; fill-opacity:1; font-family:Arial,Helvetica Neue,Helvetica,sans-serif; font-size:48px; text-anchor:end;" transform="rotate(0, 227.149, 1418.63)" x="227.149" y="1418.63">0.00</text>
</g>
<g clip-path="url(#clip7901)">
<text style="fill:#000000; fill-opacity:1; font-family:Arial,Helvetica Neue,Helvetica,sans-serif; font-size:48px; text-anchor:end;" transform="rotate(0, 227.149, 1090.02)" x="227.149" y="1090.02">0.25</text>
</g>
<g clip-path="url(#clip7901)">
<text style="fill:#000000; fill-opacity:1; font-family:Arial,Helvetica Neue,Helvetica,sans-serif; font-size:48px; text-anchor:end;" transform="rotate(0, 227.149, 761.403)" x="227.149" y="761.403">0.50</text>
</g>
<g clip-path="url(#clip7901)">
<text style="fill:#000000; fill-opacity:1; font-family:Arial,Helvetica Neue,Helvetica,sans-serif; font-size:48px; text-anchor:end;" transform="rotate(0, 227.149, 432.789)" x="227.149" y="432.789">0.75</text>
</g>
<g clip-path="url(#clip7901)">
<text style="fill:#000000; fill-opacity:1; font-family:Arial,Helvetica Neue,Helvetica,sans-serif; font-size:48px; text-anchor:end;" transform="rotate(0, 227.149, 104.175)" x="227.149" y="104.175">1.00</text>
</g>
<g clip-path="url(#clip7901)">
<text style="fill:#000000; fill-opacity:1; font-family:Arial,Helvetica Neue,Helvetica,sans-serif; font-size:66px; text-anchor:middle;" transform="rotate(0, 1286.2, 1590.4)" x="1286.2" y="1590.4">n</text>
</g>
<g clip-path="url(#clip7901)">
<text style="fill:#000000; fill-opacity:1; font-family:Arial,Helvetica Neue,Helvetica,sans-serif; font-size:66px; text-anchor:middle;" transform="rotate(-90, 57.6, 743.863)" x="57.6" y="743.863">n! with prime powers inverted</text>
</g>
<polyline clip-path="url(#clip7903)" style="stroke:#009af9; stroke-width:4; stroke-opacity:1; fill:none" points="
  309.737,86.6754 368.916,743.903 428.096,1182.06 487.276,1346.36 546.456,1390.18 605.636,1335.41 664.816,1391.74 723.996,1399.96 783.175,1401 842.355,1399.83 
  901.535,1401.01 960.715,1399.71 1019.89,1401.02 1079.07,1399.6 1138.25,1378.15 1197.43,1399.7 1256.61,1401.05 1315.79,1399.61 1374.97,1401.05 1434.15,1399.53 
  1493.33,1367.52 1552.51,661.574 1611.69,1368.98 1670.87,629.419 1730.05,1370.26 1789.23,598.551 1848.41,1371.41 1907.59,568.825 1966.77,1372.43 2025.95,540.125 
  2085.13,1373.36 2144.31,1400.26 2203.49,1372.49 2262.67,427.292 
  "/>
</svg>
